<?xml version="1.0" standalone="no"?>
<!DOCTYPE svg PUBLIC "-//W3C//DTD SVG 20010904//EN"
 "http://www.w3.org/TR/2001/REC-SVG-20010904/DTD/svg10.dtd">
<svg version="1.0" xmlns="http://www.w3.org/2000/svg"
 width="250.000000pt" height="250.000000pt" viewBox="0 0 250.000000 250.000000"
 preserveAspectRatio="xMidYMid meet">
<metadata>
Created by potrace 1.11, written by Peter Selinger 2001-2013
</metadata>
<g transform="translate(0.000000,250.000000) scale(0.100000,-0.100000)"
fill="#000000" stroke="none">
<path d="M968 2303 c-225 -32 -415 -144 -486 -285 -39 -77 -53 -177 -37 -259
29 -141 114 -239 281 -320 58 -29 102 -55 97 -59 -4 -4 -38 -17 -76 -30 -80
-26 -149 -70 -191 -123 -40 -51 -48 -139 -17 -209 38 -90 155 -171 311 -219
41 -12 82 -25 90 -27 8 -3 116 -6 240 -8 124 -1 245 -5 269 -8 72 -10 118 -43
147 -103 23 -46 25 -60 20 -120 -18 -193 -141 -274 -416 -273 -174 0 -312 76
-360 198 -16 42 -7 139 19 190 23 45 17 59 -27 67 -18 3 -51 11 -75 19 -111
36 -136 39 -180 26 -132 -39 -213 -124 -221 -233 -3 -37 14 -109 37 -153 39
-75 184 -168 291 -188 12 -2 39 -9 61 -14 168 -45 626 -49 767 -6 9 3 25 6 35
8 120 24 287 103 365 175 99 91 147 191 153 316 7 167 -85 312 -246 388 -89
42 -147 56 -259 62 -47 2 -123 7 -170 10 -47 3 -143 7 -215 10 -220 8 -271 23
-291 85 -21 63 9 105 130 188 38 26 71 52 73 58 2 6 -9 16 -24 23 -35 14 -86
89 -110 161 -25 77 -25 310 0 393 20 66 77 136 174 213 35 27 63 52 63 55 0
10 -134 5 -222 -8z"/>
<path d="M1261 2250 c-30 -28 -52 -52 -49 -56 4 -3 21 -13 40 -22 38 -20 93
-120 106 -193 9 -56 8 -251 -2 -304 -18 -92 -81 -180 -185 -255 -80 -58 -71
-69 52 -63 288 14 503 121 594 297 45 87 50 209 13 308 -43 116 -166 243 -277
287 -51 20 -187 51 -220 51 -10 -1 -42 -23 -72 -50z"/>
<path d="M2098 2280 c-42 -12 -67 -34 -104 -89 -21 -30 -50 -59 -74 -71 -21
-11 -41 -23 -44 -28 -3 -4 6 -27 20 -50 29 -49 75 -66 209 -76 76 -6 150 29
175 83 60 129 -50 270 -182 231z"/>
</g>
</svg>
